# xmcd
#
# Track frame offsets:
#	150
#	2548
#	23403
#	43525
#	60155
#	79338
#	99613
#	118410
#	137985
#	159120
#
# Disc length: 2361 seconds
#
# Revision: 1
# Processed by: cddbd v1.5.1PL0 Copyright (c) Steve Scherf et al.
# Submitted via: CDex 1.50Beta5
#
DISCID=7009370a
DTITLE=宇都宮 隆 - wantok
DYEAR=1900
DGENRE=Rock
TTITLE0=wantok 〜introduction
TTITLE1=道 〜walk with you〜
TTITLE2=perfct
TTITLE3=愛しい人
TTITLE4=regrets
TTITLE5=(it's)Time to Go
TTITLE6=Rolling around
TTITLE7=ウィークエンド ファイアー
TTITLE8=sitting in the sunset
TTITLE9=wantok
EXTD=
EXTT0=
EXTT1=
EXTT2=
EXTT3=
EXTT4=
EXTT5=
EXTT6=
EXTT7=
EXTT8=
EXTT9=
PLAYORDER=
